<svg width="54" height="38" viewBox="0 0 54 38" fill="none" xmlns="http://www.w3.org/2000/svg">
<path d="M30.24 12.712H16.944C15.952 12.712 15.088 12.888 14.352 13.24C13.648 13.56 12.944 14.088 12.24 14.824C11.568 15.528 11.056 16.328 10.704 17.224C10.352 18.12 10.176 19.16 10.176 20.344C10.176 21.336 10.352 22.28 10.704 23.176C11.056 24.072 11.568 24.888 12.24 25.624C12.944 26.328 13.648 26.856 14.352 27.208C15.088 27.528 15.952 27.688 16.944 27.688H30.24V36.28L29.232 37H16.512C14.944 37 13.088 36.584 10.944 35.752C8.8 34.92 6.96 33.752 5.424 32.248C3.92 30.712 2.72 28.92 1.824 26.872C0.928 24.824 0.48 22.648 0.48 20.344C0.48 17.848 0.928 15.576 1.824 13.528C2.72 11.48 3.92 9.704 5.424 8.2C6.96 6.664 8.8 5.48 10.944 4.648C13.088 3.816 14.944 3.4 16.512 3.4H29.232L30.24 4.12V12.712ZM2.208 20.344C2.208 22.712 2.736 24.952 3.792 27.064C4.304 27.96 4.896 28.856 5.568 29.752C6.272 30.648 7.12 31.496 8.112 32.296C9.136 33.064 10.352 33.736 11.76 34.312C13.2 34.888 14.864 35.224 16.752 35.32H28.512V29.368H17.04C14.992 29.176 13.376 28.632 12.192 27.736C11.008 26.84 10.064 25.72 9.36 24.376C8.784 23.128 8.496 21.784 8.496 20.344C8.496 18.712 8.784 17.272 9.36 16.024C10.064 14.68 11.008 13.56 12.192 12.664C13.376 11.768 14.992 11.224 17.04 11.032H28.512V5.08H16.752C14.864 5.176 13.2 5.512 11.76 6.088C10.352 6.664 9.136 7.352 8.112 8.152C7.12 8.92 6.272 9.752 5.568 10.648C4.896 11.544 4.304 12.44 3.792 13.336C2.736 15.448 2.208 17.784 2.208 20.344Z" fill="white"/>
<path d="M16.3915 4.66302L17.4404 3.50455L28.5282 3.43641L29.5913 4.58189L29.6347 11.6378L28.5858 12.7962L17.498 12.8644L16.4349 11.7189L16.3915 4.66302ZM18.1116 11.1806L27.9514 11.1201L27.9146 5.12021L18.0748 5.18068L18.1116 11.1806ZM52.9213 12.6467L42.1695 12.7127C41.6255 12.7161 41.3551 12.9738 41.3582 13.4857L41.4954 35.8053L40.3985 36.9641L32.8627 37.0104L31.7996 35.8649L31.6548 12.2974C31.6477 11.1454 31.9449 10.0395 32.5464 8.97982C33.1477 7.8881 33.8779 6.9396 34.7369 6.1343C35.6278 5.29681 36.5358 4.63522 37.4608 4.14952C38.4176 3.63163 39.312 3.37013 40.144 3.36502L52.8638 3.28684L52.9213 12.6467ZM41.1143 5.03909C39.7703 5.04735 38.6361 5.34232 37.7117 5.92401C36.7873 6.50571 35.9438 7.2469 35.1813 8.14761C34.4186 9.01631 33.9118 9.85144 33.6607 10.653C33.4414 11.4224 33.3339 12.159 33.3383 12.863L33.4763 35.3266L39.7642 35.288L39.6294 13.3524C39.628 13.1284 39.6905 12.888 39.817 12.6312C39.9432 12.3424 40.1016 12.0854 40.2922 11.8603C40.4828 11.6351 40.6897 11.4418 40.9127 11.2804C41.1677 11.1189 41.4392 11.0372 41.7272 11.0354L51.231 10.977L51.1941 4.97714L41.1143 5.03909Z" fill="white"/>
<path d="M29 12V5H19.5H17H15H13L12 5.5L10 6.5L7 8.5L5.5 10.5L4.5 12L3.5 13.5L2.5 14.5V15.5L2 17.5V19V20.5V22L2.5 23.5V25L3.5 27L4.5 28.5L5 29.5L6 30.5L7 31.5L8 32.5L9 33L9.5 33.5L10.5 34L11 34.5L12.5 35H14L15.5 35.5L29 36V29H28H17H15.5L14 28.5L13.5 27.5L11.5 27L11 26.5L10.5 25.5L9.5 24.5L9 23.5V22.5L8.5 21L9 19.5L9.5 17.5V16L10 15L11 14L11.5 13.5H12L12.5 13L13 12.5L14.5 12H16.2572H29Z" fill="white"/>
<path d="M29 5H18V12H29V5Z" fill="white"/>
<path d="M33 36.5V13.5V12L33.5 10L35 8L37 6L39 5H52V12H41.5L40.5 13.5V36.5H33Z" fill="white"/>
</svg>
