<svg xmlns="http://www.w3.org/2000/svg" width="90.78" height="90.156" viewBox="0 0 90.78 90.156">
  <metadata><?xpacket begin="﻿" id="W5M0MpCehiHzreSzNTczkc9d"?>
<x:xmpmeta xmlns:x="adobe:ns:meta/" x:xmptk="Adobe XMP Core 5.6-c142 79.160924, 2017/07/13-01:06:39        ">
   <rdf:RDF xmlns:rdf="http://www.w3.org/1999/02/22-rdf-syntax-ns#">
      <rdf:Description rdf:about=""/>
   </rdf:RDF>
</x:xmpmeta>
                                                                                                    
                                                                                                    
                                                                                                    
                                                                                                    
                                                                                                    
                                                                                                    
                                                                                                    
                                                                                                    
                                                                                                    
                                                                                                    
                                                                                                    
                                                                                                    
                                                                                                    
                                                                                                    
                                                                                                    
                                                                                                    
                                                                                                    
                                                                                                    
                                                                                                    
                                                                                                    
                           
<?xpacket end="w"?></metadata>
<defs>
    <style>
      .cls-1 {
        fill: #fff;
        fill-rule: evenodd;
      }
    </style>
  </defs>
  <path id="Click_to_more_click_to_more_copy" data-name="Click to more * click to more * copy" class="cls-1" d="M1201.53,735.48c2.29-.572,3.72-1.908,3.87-3.636l-2.68.072a1.748,1.748,0,0,1-1.58,1.693,1.832,1.832,0,0,1-2.48-1.327,1.851,1.851,0,0,1,1.57-2.349,1.739,1.739,0,0,1,2.17.764l2.45-1.128c-0.86-1.483-2.82-2.046-5.09-1.478-2.72.681-4.25,2.7-3.71,4.885C1196.61,735.206,1198.75,736.176,1201.53,735.48Zm5.52-1.4,7.04-.128-0.04-1.96-4.48.082-0.09-5.139-2.56.047Zm10.64,0.511,1.03-7.026-2.54-.369-1.02,7.026Zm5.41,1.676c2.24,0.758,4.16.407,5.23-.963l-2.29-1.39a1.762,1.762,0,0,1-2.25.57,1.835,1.835,0,0,1-1.37-2.462,1.855,1.855,0,0,1,2.59-1.128,1.744,1.744,0,0,1,1.42,1.823l2.67,0.378c0.08-1.717-1.26-3.248-3.48-4-2.66-.9-5.05-0.033-5.77,2.1C1219.11,733.375,1220.39,735.349,1223.1,736.271Zm10.32,5.04,2.44,1.607-0.27-5.351h0.22l3.88-.629-2.56-1.684-4.12.694,1.57-2.379-2.14-1.409-3.91,5.926,2.14,1.409,0.97-1.477,1.59-.282Zm14.71,4.822-5.15-6.144-1.5,1.253,1.76,2.092-3.95,3.311,1.64,1.953,3.95-3.311,1.76,2.1Zm-3.33,9.134c1.31,2.638,3.45,3.665,5.54,2.634s2.58-3.36,1.28-6-3.45-3.674-5.54-2.643S1243.5,752.621,1244.8,755.267Zm1.67-.823a1.952,1.952,0,1,1,2.68,1.034A1.924,1.924,0,0,1,1246.47,754.444Zm2.09,9.824,0.14,2.216,3.9-.254a8.335,8.335,0,0,0,1.49-.2v0.04c-0.33.112-.86,0.307-1.4,0.543l-3.87,1.706,0.16,2.376,4.08,1.277c0.49,0.158,1.19.343,1.44,0.387l0.01,0.05a9.193,9.193,0,0,0-1.51-.042l-3.89.255,0.15,2.336,7.09-.464-0.26-3.883-3.66-.984a4.826,4.826,0,0,0-.93-0.2v-0.02a4.15,4.15,0,0,0,.87-0.317l3.52-1.5-0.24-3.783Zm-0.83,16.379c-0.67,2.861.33,5.016,2.6,5.55s4.13-.949,4.8-3.809-0.33-5.026-2.59-5.56S1248.41,777.777,1247.73,780.647Zm1.81,0.426a1.953,1.953,0,1,1,1.41,2.5A1.923,1.923,0,0,1,1249.54,781.073Zm-5.72,10.147-1.32,2.5,3.12-.3a2.236,2.236,0,0,0,1.22,2.311c1.01,0.536,2.39.458,3.53-1.71l2.32-4.4-6.29-3.308-1.19,2.264,2.05,1.081-0.69,1.318Zm6.23-.1-0.84,1.6c-0.38.708-.82,0.77-1.2,0.57a0.86,0.86,0,0,1-.23-1.333l0.84-1.593Zm-8.65,6.466,0.8,0.71-3.11,3.515,1.19,1.048,3.11-3.515,0.75,0.67-3.22,3.643,1.29,1.14,4.92-5.561-5.32-4.709-4.97,5.614,1.29,1.141Zm-9.3,12.059,1.24,1.05,0.63-1.466,0.32,1.435,1.53-.965-1.17-.9,1.6,0.067-0.41-1.578-1.33.792,0.64-1.523-1.71-.061,0.3,1.62-1.32-.975-0.69,1.57,1.65,0.084Zm-11.09-1.226c-2.27.649-3.66,2.032-3.75,3.765l2.68-.163a1.734,1.734,0,0,1,1.51-1.744,1.834,1.834,0,0,1,2.53,1.241,1.855,1.855,0,0,1-1.48,2.4,1.756,1.756,0,0,1-2.21-.69l-2.41,1.209c0.92,1.454,2.89,1.95,5.14,1.307,2.7-.773,4.16-2.845,3.55-5.007C1225.93,808.531,1223.76,807.634,1221.01,808.423Zm-5.49,1.477-7.04.252,0.07,1.96,4.48-.16,0.18,5.139,2.56-.091Zm-10.67-.337-0.9,7.04,2.53,0.327,0.91-7.04Zm-5.44-1.6c-2.24-.725-4.16-0.348-5.21,1.037l2.32,1.358a1.744,1.744,0,0,1,2.23-.6,1.9,1.9,0,1,1-1.16,3.605,1.749,1.749,0,0,1-1.45-1.8l-2.67-.339c-0.06,1.717,1.31,3.228,3.53,3.948,2.67,0.864,5.05-.04,5.74-2.18C1203.45,810.8,1202.14,808.848,1199.41,807.965Zm-10.38-4.858-2.46-1.568,0.36,5.347-0.22,0-3.87.692,2.58,1.643,4.12-.761-1.53,2.4,2.16,1.375,3.81-5.99-2.16-1.375-0.95,1.493-1.59.309Zm-14.8-4.608,5.25,6.068,1.47-1.276-1.78-2.066,3.89-3.371-1.67-1.929-3.89,3.371-1.8-2.074Zm3.19-9.155c-1.35-2.612-3.51-3.6-5.58-2.534s-2.52,3.4-1.17,6.012,3.51,3.61,5.58,2.543S1178.77,791.965,1177.42,789.344Zm-1.65.851a1.952,1.952,0,1,1-2.69-.986A1.921,1.921,0,0,1,1175.77,790.2Zm-2.25-9.824-0.18-2.214-3.89.315a8.331,8.331,0,0,0-1.49.221v-0.04c0.33-.117.85-0.32,1.39-0.564l3.84-1.767-0.19-2.374-4.11-1.213c-0.49-.151-1.19-0.325-1.44-0.365l-0.01-.05a9.161,9.161,0,0,0,1.51.019l3.89-.315-0.19-2.334-7.08.574,0.31,3.879,3.68,0.927a4.757,4.757,0,0,0,.93.186v0.019a4.45,4.45,0,0,0-.86.332l-3.5,1.558,0.31,3.779Zm0.56-16.352c0.63-2.871-.41-5.012-2.68-5.51s-4.11,1.014-4.74,3.885,0.4,5.022,2.68,5.52S1173.45,766.9,1174.08,764.019Zm-1.82-.4a1.951,1.951,0,1,1-1.44-2.475A1.908,1.908,0,0,1,1172.26,763.621Zm5.58-10.27,1.27-2.516-3.11.348a2.232,2.232,0,0,0-1.25-2.294c-1.03-.521-2.4-0.422-3.51,1.764l-2.25,4.434,6.33,3.216,1.16-2.285-2.07-1.05,0.68-1.33Zm-6.24.19,0.82-1.614c0.36-.714.8-0.783,1.19-0.589s0.62,0.6.25,1.331l-0.81,1.606Zm8.55-6.59-0.81-.7,3.05-3.559-1.2-1.029-3.05,3.559-0.77-.657,3.17-3.689-1.31-1.12-4.83,5.632,5.39,4.623,4.88-5.684-1.31-1.121Zm9.1-12.2-1.26-1.03-0.61,1.475-0.34-1.429-1.51.99,1.18,0.885-1.6-.04,0.43,1.571,1.32-.814-0.61,1.534,1.7,0.033-0.32-1.615,1.34,0.954,0.66-1.581-1.65-.057Z" transform="translate(-1165.56 -726.938)"/>
</svg>
