<svg width="267" height="42" viewBox="0 0 267 42" fill="none" xmlns="http://www.w3.org/2000/svg">
<g filter="url(#filter0_d_3:7)">
<path d="M34.24 12.712H20.944C19.952 12.712 19.088 12.888 18.352 13.24C17.648 13.56 16.944 14.088 16.24 14.824C15.568 15.528 15.056 16.328 14.704 17.224C14.352 18.12 14.176 19.16 14.176 20.344C14.176 21.336 14.352 22.28 14.704 23.176C15.056 24.072 15.568 24.888 16.24 25.624C16.944 26.328 17.648 26.856 18.352 27.208C19.088 27.528 19.952 27.688 20.944 27.688H34.24V36.28L33.232 37H20.512C18.944 37 17.088 36.584 14.944 35.752C12.8 34.92 10.96 33.752 9.424 32.248C7.92 30.712 6.72 28.92 5.824 26.872C4.928 24.824 4.48 22.648 4.48 20.344C4.48 17.848 4.928 15.576 5.824 13.528C6.72 11.48 7.92 9.704 9.424 8.2C10.96 6.664 12.8 5.48 14.944 4.648C17.088 3.816 18.944 3.4 20.512 3.4H33.232L34.24 4.12V12.712ZM6.208 20.344C6.208 22.712 6.736 24.952 7.792 27.064C8.304 27.96 8.896 28.856 9.568 29.752C10.272 30.648 11.12 31.496 12.112 32.296C13.136 33.064 14.352 33.736 15.76 34.312C17.2 34.888 18.864 35.224 20.752 35.32H32.512V29.368H21.04C18.992 29.176 17.376 28.632 16.192 27.736C15.008 26.84 14.064 25.72 13.36 24.376C12.784 23.128 12.496 21.784 12.496 20.344C12.496 18.712 12.784 17.272 13.36 16.024C14.064 14.68 15.008 13.56 16.192 12.664C17.376 11.768 18.992 11.224 21.04 11.032H32.512V5.08H20.752C18.864 5.176 17.2 5.512 15.76 6.088C14.352 6.664 13.136 7.352 12.112 8.152C11.12 8.92 10.272 9.752 9.568 10.648C8.896 11.544 8.304 12.44 7.792 13.336C6.736 15.448 6.208 17.784 6.208 20.344ZM35.1831 20.2C35.1831 17.896 35.6311 15.72 36.5271 13.672C37.4551 11.624 38.6711 9.848 40.1751 8.344C41.7111 6.84 43.5191 5.64 45.5991 4.744C47.6791 3.848 49.9191 3.4 52.3191 3.4C54.6871 3.4 56.9111 3.848 58.9911 4.744C61.1031 5.64 62.9111 6.84 64.4151 8.344C65.9511 9.848 67.1671 11.624 68.0631 13.672C68.9911 15.72 69.4551 17.896 69.4551 20.2C69.4551 22.536 68.9911 24.728 68.0631 26.776C67.1671 28.824 65.9511 30.6 64.4151 32.104C62.9111 33.608 61.1031 34.808 58.9911 35.704C56.9111 36.568 54.6871 37 52.3191 37C49.9191 37 47.6791 36.568 45.5991 35.704C43.5191 34.808 41.7111 33.608 40.1751 32.104C38.6711 30.6 37.4551 28.824 36.5271 26.776C35.6311 24.728 35.1831 22.536 35.1831 20.2ZM36.9111 20.2C36.9111 22.248 37.3111 24.2 38.1111 26.056C38.9431 27.912 40.0471 29.528 41.4231 30.904C42.8311 32.248 44.4791 33.32 46.3671 34.12C48.2551 34.92 50.2551 35.32 52.3671 35.32C54.4791 35.32 56.4791 34.92 58.3671 34.12C60.2871 33.32 61.9511 32.248 63.3591 30.904C64.7671 29.528 65.8711 27.912 66.6711 26.056C67.5031 24.2 67.9191 22.248 67.9191 20.2C67.9191 18.152 67.5031 16.2 66.6711 14.344C65.8711 12.488 64.7671 10.888 63.3591 9.544C61.9511 8.168 60.2871 7.08 58.3671 6.28C56.4791 5.48 54.4791 5.08 52.3671 5.08C50.2551 5.08 48.2551 5.48 46.3671 6.28C44.4791 7.08 42.8311 8.168 41.4231 9.544C40.0471 10.888 38.9431 12.488 38.1111 14.344C37.3111 16.2 36.9111 18.152 36.9111 20.2ZM43.2471 20.44C43.2471 19.192 43.4871 18.024 43.9671 16.936C44.4471 15.848 45.1031 14.904 45.9351 14.104C46.7671 13.272 47.7431 12.616 48.8631 12.136C49.9831 11.656 51.1671 11.416 52.4151 11.416C53.6631 11.416 54.8471 11.656 55.9671 12.136C57.1191 12.616 58.1111 13.272 58.9431 14.104C59.7751 14.904 60.4311 15.848 60.9111 16.936C61.4231 18.024 61.6791 19.192 61.6791 20.44C61.6791 21.688 61.4231 22.856 60.9111 23.944C60.4311 25.032 59.7751 25.992 58.9431 26.824C58.1111 27.624 57.1191 28.264 55.9671 28.744C54.8471 29.192 53.6631 29.416 52.4151 29.416C51.1671 29.416 49.9831 29.192 48.8631 28.744C47.7431 28.264 46.7671 27.624 45.9351 26.824C45.1031 25.992 44.4471 25.032 43.9671 23.944C43.4871 22.856 43.2471 21.688 43.2471 20.44ZM44.9271 20.44C44.9271 21.464 45.1191 22.408 45.5031 23.272C45.9191 24.136 46.4631 24.904 47.1351 25.576C47.8391 26.248 48.6391 26.776 49.5351 27.16C50.4631 27.544 51.4391 27.736 52.4631 27.736C53.4551 27.736 54.3991 27.544 55.2951 27.16C56.2231 26.776 57.0391 26.248 57.7431 25.576C58.4471 24.904 58.9911 24.136 59.3751 23.272C59.7911 22.408 59.9991 21.464 59.9991 20.44C59.9991 19.416 59.7911 18.472 59.3751 17.608C58.9911 16.744 58.4471 15.976 57.7431 15.304C57.0391 14.632 56.2231 14.104 55.2951 13.72C54.3991 13.304 53.4551 13.096 52.4631 13.096C51.4391 13.096 50.4631 13.304 49.5351 13.72C48.6391 14.104 47.8391 14.632 47.1351 15.304C46.4631 15.976 45.9191 16.744 45.5031 17.608C45.1191 18.472 44.9271 19.416 44.9271 20.44ZM70.4331 27.88H83.5851C84.6091 27.88 85.5371 27.672 86.3691 27.256C87.2011 26.808 87.9211 26.248 88.5291 25.576C89.1371 24.872 89.6011 24.072 89.9211 23.176C90.2411 22.248 90.4011 21.304 90.4011 20.344C90.4011 19.384 90.2411 18.456 89.9211 17.56C89.6011 16.632 89.1371 15.816 88.5291 15.112C87.9211 14.376 87.2011 13.816 86.3691 13.432C85.5371 13.016 84.6091 12.776 83.5851 12.712H80.1771V22.6H70.4331V4.12L71.3931 3.4H84.1131C86.5451 3.4 88.7371 3.96 90.6891 5.08C92.6411 6.168 94.3051 7.544 95.6811 9.208C97.0891 10.872 98.1131 12.616 98.7531 14.44C99.4251 16.264 99.7611 18.168 99.7611 20.152C99.7611 22.808 99.2811 25.096 98.3211 27.016C97.3931 28.904 96.1771 30.616 94.6731 32.152C93.2011 33.656 91.5211 34.84 89.6331 35.704C87.7771 36.568 85.9051 37 84.0171 37H71.3931L70.4331 36.28V27.88ZM72.1131 20.92H78.4971V11.176H84.1131C85.3931 11.24 86.5131 11.576 87.4731 12.184C88.4331 12.792 89.2491 13.56 89.9211 14.488C90.6251 15.416 91.1211 16.408 91.4091 17.464C91.7291 18.488 91.8891 19.416 91.8891 20.248C91.9211 21.752 91.6651 23.144 91.1211 24.424C90.8971 24.968 90.5931 25.512 90.2091 26.056C89.8571 26.568 89.3931 27.064 88.8171 27.544C88.2731 27.992 87.6171 28.376 86.8491 28.696C86.1131 29.016 85.2331 29.24 84.2091 29.368H72.1131V35.32H83.7771C85.5691 35.224 87.1371 34.888 88.4811 34.312C89.8571 33.736 91.0571 33.064 92.0811 32.296C93.1051 31.496 93.9531 30.648 94.6251 29.752C95.3291 28.856 95.9051 27.96 96.3531 27.064C97.4091 24.952 97.9851 22.648 98.0811 20.152C98.1131 17.624 97.6171 15.416 96.5931 13.528C95.6011 11.608 94.3851 10.024 92.9451 8.776C91.5051 7.496 90.0011 6.568 88.4331 5.992C86.8651 5.384 85.5051 5.08 84.3531 5.08H72.1131V20.92ZM128.89 15.4H101.674L100.714 16.12V36.28L101.674 37H131.05L132.058 36.28V28.84L131.098 27.688H110.458V25H118.714C120.314 24.904 121.69 24.6 122.842 24.088C124.026 23.544 124.986 22.936 125.722 22.264C126.49 21.56 127.21 20.536 127.882 19.192C128.554 17.848 128.89 16.584 128.89 15.4ZM102.394 17.08H126.682C126.458 18.072 125.978 19.048 125.242 20.008C124.506 20.936 123.626 21.704 122.602 22.312C121.578 22.888 120.218 23.224 118.522 23.32H108.778V29.368H130.378V35.32H102.394V17.08ZM101.674 12.76L100.714 12.04V4.12L101.674 3.4H131.098L132.058 4.12V12.04L131.098 12.76H101.674ZM130.378 11.08V5.08H102.394V11.08H130.378ZM133.011 4.552L134.067 3.4H145.155L146.211 4.552V11.608L145.155 12.76H134.067L133.011 11.608V4.552ZM134.691 11.08H144.531V5.08H134.691V11.08ZM169.491 12.76H158.739C158.195 12.76 157.923 13.016 157.923 13.528V35.848L156.819 37H149.283L148.227 35.848V12.28C148.227 11.128 148.531 10.024 149.139 8.968C149.747 7.88 150.483 6.936 151.347 6.136C152.243 5.304 153.155 4.648 154.083 4.168C155.043 3.656 155.939 3.4 156.771 3.4H169.491V12.76ZM157.731 5.08C156.387 5.08 155.251 5.368 154.323 5.944C153.395 6.52 152.547 7.256 151.779 8.152C151.011 9.016 150.499 9.848 150.243 10.648C150.019 11.416 149.907 12.152 149.907 12.856V35.32H156.195V13.384C156.195 13.16 156.259 12.92 156.387 12.664C156.515 12.376 156.675 12.12 156.867 11.896C157.059 11.672 157.267 11.48 157.491 11.32C157.747 11.16 158.019 11.08 158.307 11.08H167.811V5.08H157.731ZM198.125 15.4H170.909L169.949 16.12V36.28L170.909 37H200.285L201.293 36.28V28.84L200.333 27.688H179.693V25H187.949C189.549 24.904 190.925 24.6 192.077 24.088C193.261 23.544 194.221 22.936 194.957 22.264C195.725 21.56 196.445 20.536 197.117 19.192C197.789 17.848 198.125 16.584 198.125 15.4ZM171.629 17.08H195.917C195.693 18.072 195.213 19.048 194.477 20.008C193.741 20.936 192.861 21.704 191.837 22.312C190.813 22.888 189.453 23.224 187.757 23.32H178.013V29.368H199.613V35.32H171.629V17.08ZM170.909 12.76L169.949 12.04V4.12L170.909 3.4H200.333L201.293 4.12V12.04L200.333 12.76H170.909ZM199.613 11.08V5.08H171.629V11.08H199.613ZM232.006 12.712H218.71C217.718 12.712 216.854 12.888 216.118 13.24C215.414 13.56 214.71 14.088 214.006 14.824C213.334 15.528 212.822 16.328 212.47 17.224C212.118 18.12 211.942 19.16 211.942 20.344C211.942 21.336 212.118 22.28 212.47 23.176C212.822 24.072 213.334 24.888 214.006 25.624C214.71 26.328 215.414 26.856 216.118 27.208C216.854 27.528 217.718 27.688 218.71 27.688H232.006V36.28L230.998 37H218.278C216.71 37 214.854 36.584 212.71 35.752C210.566 34.92 208.726 33.752 207.19 32.248C205.686 30.712 204.486 28.92 203.59 26.872C202.694 24.824 202.246 22.648 202.246 20.344C202.246 17.848 202.694 15.576 203.59 13.528C204.486 11.48 205.686 9.704 207.19 8.2C208.726 6.664 210.566 5.48 212.71 4.648C214.854 3.816 216.71 3.4 218.278 3.4H230.998L232.006 4.12V12.712ZM203.974 20.344C203.974 22.712 204.502 24.952 205.558 27.064C206.07 27.96 206.662 28.856 207.334 29.752C208.038 30.648 208.886 31.496 209.878 32.296C210.902 33.064 212.118 33.736 213.526 34.312C214.966 34.888 216.63 35.224 218.518 35.32H230.278V29.368H218.806C216.758 29.176 215.142 28.632 213.958 27.736C212.774 26.84 211.83 25.72 211.126 24.376C210.55 23.128 210.262 21.784 210.262 20.344C210.262 18.712 210.55 17.272 211.126 16.024C211.83 14.68 212.774 13.56 213.958 12.664C215.142 11.768 216.758 11.224 218.806 11.032H230.278V5.08H218.518C216.63 5.176 214.966 5.512 213.526 6.088C212.118 6.664 210.902 7.352 209.878 8.152C208.886 8.92 208.038 9.752 207.334 10.648C206.662 11.544 206.07 12.44 205.558 13.336C204.502 15.448 203.974 17.784 203.974 20.344ZM261.269 3.4L262.229 4.12V36.28L261.269 37H253.445L252.485 36.28V24.808H242.693V36.28L241.733 37H233.909L232.949 36.28V15.4H252.485V4.12L253.445 3.4H261.269ZM254.165 5.08V17.08H234.629V35.32H241.013V23.128H254.165V35.32H260.549V5.08H254.165ZM232.949 12.76C232.949 11.832 232.981 11.016 233.045 10.312C233.141 9.608 233.285 8.856 233.477 8.056C233.701 7.256 234.053 6.52 234.533 5.848C235.013 5.144 235.653 4.568 236.453 4.12C237.253 3.672 238.261 3.432 239.477 3.4H242.693V12.04L241.733 12.76H232.949ZM241.013 4.6C239.445 4.664 238.405 4.792 237.893 4.984C237.413 5.176 236.981 5.432 236.597 5.752C236.245 6.072 235.941 6.424 235.685 6.808C235.461 7.192 235.269 7.592 235.109 8.008C234.757 9 234.597 10.024 234.629 11.08H241.013V4.6Z" fill="url(#paint0_linear_3:7)"/>
</g>
<defs>
<filter id="filter0_d_3:7" x="0.480003" y="0.399994" width="265.749" height="41.6" filterUnits="userSpaceOnUse" color-interpolation-filters="sRGB">
<feFlood flood-opacity="0" result="BackgroundImageFix"/>
<feColorMatrix in="SourceAlpha" type="matrix" values="0 0 0 0 0 0 0 0 0 0 0 0 0 0 0 0 0 0 127 0" result="hardAlpha"/>
<feOffset dy="1"/>
<feGaussianBlur stdDeviation="2"/>
<feComposite in2="hardAlpha" operator="out"/>
<feColorMatrix type="matrix" values="0 0 0 0 0 0 0 0 0 0 0 0 0 0 0 0 0 0 0.25 0"/>
<feBlend mode="normal" in2="BackgroundImageFix" result="effect1_dropShadow_3:7"/>
<feBlend mode="normal" in="SourceGraphic" in2="effect1_dropShadow_3:7" result="shape"/>
</filter>
<linearGradient id="paint0_linear_3:7" x1="134.5" y1="1" x2="134.5" y2="39" gradientUnits="userSpaceOnUse">
<stop/>
<stop offset="1" stop-color="#00D1FF"/>
</linearGradient>
</defs>
</svg>
