<svg width="71" height="47" viewBox="0 0 71 47" fill="none" xmlns="http://www.w3.org/2000/svg">
<path d="M30.24 11.712H16.944C15.952 11.712 15.088 11.888 14.352 12.24C13.648 12.56 12.944 13.088 12.24 13.824C11.568 14.528 11.056 15.328 10.704 16.224C10.352 17.12 10.176 18.16 10.176 19.344C10.176 20.336 10.352 21.28 10.704 22.176C11.056 23.072 11.568 23.888 12.24 24.624C12.944 25.328 13.648 25.856 14.352 26.208C15.088 26.528 15.952 26.688 16.944 26.688H30.24V35.28L29.232 36H16.512C14.944 36 13.088 35.584 10.944 34.752C8.8 33.92 6.96 32.752 5.424 31.248C3.92 29.712 2.72 27.92 1.824 25.872C0.928 23.824 0.48 21.648 0.48 19.344C0.48 16.848 0.928 14.576 1.824 12.528C2.72 10.48 3.92 8.704 5.424 7.2C6.96 5.664 8.8 4.48 10.944 3.648C13.088 2.816 14.944 2.4 16.512 2.4H29.232L30.24 3.12V11.712ZM2.208 19.344C2.208 21.712 2.736 23.952 3.792 26.064C4.304 26.96 4.896 27.856 5.568 28.752C6.272 29.648 7.12 30.496 8.112 31.296C9.136 32.064 10.352 32.736 11.76 33.312C13.2 33.888 14.864 34.224 16.752 34.32H28.512V28.368H17.04C14.992 28.176 13.376 27.632 12.192 26.736C11.008 25.84 10.064 24.72 9.36 23.376C8.784 22.128 8.496 20.784 8.496 19.344C8.496 17.712 8.784 16.272 9.36 15.024C10.064 13.68 11.008 12.56 12.192 11.664C13.376 10.768 14.992 10.224 17.04 10.032H28.512V4.08H16.752C14.864 4.176 13.2 4.512 11.76 5.088C10.352 5.664 9.136 6.352 8.112 7.152C7.12 7.92 6.272 8.752 5.568 9.648C4.896 10.544 4.304 11.44 3.792 12.336C2.736 14.448 2.208 16.784 2.208 19.344ZM31.1831 3.552L32.2391 2.4H43.3271L44.3831 3.552V10.608L43.3271 11.76H32.2391L31.1831 10.608V3.552ZM32.8631 10.08H42.7031V4.08H32.8631V10.08ZM67.6631 11.76H56.9111C56.3671 11.76 56.0951 12.016 56.0951 12.528V34.848L54.9911 36H47.4551L46.3991 34.848V11.28C46.3991 10.128 46.7031 9.024 47.3111 7.968C47.9191 6.88 48.6551 5.936 49.5191 5.136C50.4151 4.304 51.3271 3.648 52.2551 3.168C53.2151 2.656 54.1111 2.4 54.9431 2.4H67.6631V11.76ZM55.9031 4.08C54.5591 4.08 53.4231 4.368 52.4951 4.944C51.5671 5.52 50.7191 6.256 49.9511 7.152C49.1831 8.016 48.6711 8.848 48.4151 9.648C48.1911 10.416 48.0791 11.152 48.0791 11.856V34.32H54.3671V12.384C54.3671 12.16 54.4311 11.92 54.5591 11.664C54.6871 11.376 54.8471 11.12 55.0391 10.896C55.2311 10.672 55.4391 10.48 55.6631 10.32C55.9191 10.16 56.1911 10.08 56.4791 10.08H65.9831V4.08H55.9031Z" fill="white"/>
<path d="M29 11V4H19.5H17H15H13L12 4.5L10 5.5L7 7.5L5.5 9.5L4.5 11L3.5 12.5L2.5 13.5V14.5L2 16.5V18V19.5V21L2.5 22.5V24L3.5 26L4.5 27.5L5 28.5L6 29.5L7 30.5L8 31.5L9 32L9.5 32.5L10.5 33L11 33.5L12.5 34H14L15.5 34.5L29 35V28H28H17H15.5L14 27.5L13.5 26.5L11.5 26L11 25.5L10.5 24.5L9.5 23.5L9 22.5V21.5L8.5 20L9 18.5L9.5 16.5V15L10 14L11 13L11.5 12.5H12L12.5 12L13 11.5L14.5 11H16.2572H29Z" fill="white"/>
<path d="M43.5 3.5H32.5V10.5H43.5V3.5Z" fill="white"/>
<path d="M47.5 35V12V10.5L48 8.5L49.5 6.5L51.5 4.5L53.5 3.5H66.5V10.5H56L55 12V35H47.5Z" fill="white"/>
</svg>
