<svg width="67" height="64" viewBox="0 0 67 64" fill="none" xmlns="http://www.w3.org/2000/svg">
<circle cx="34" cy="32" r="32" fill="url(#paint0_linear_13:18)"/>
<g filter="url(#filter0_d_13:18)">
<path d="M30.68 27.784H20.708C19.964 27.784 19.316 27.916 18.764 28.18C18.236 28.42 17.708 28.816 17.18 29.368C16.676 29.896 16.292 30.496 16.028 31.168C15.764 31.84 15.632 32.62 15.632 33.508C15.632 34.252 15.764 34.96 16.028 35.632C16.292 36.304 16.676 36.916 17.18 37.468C17.708 37.996 18.236 38.392 18.764 38.656C19.316 38.896 19.964 39.016 20.708 39.016H30.68V45.46L29.924 46H20.384C19.208 46 17.816 45.688 16.208 45.064C14.6 44.44 13.22 43.564 12.068 42.436C10.94 41.284 10.04 39.94 9.368 38.404C8.696 36.868 8.36 35.236 8.36 33.508C8.36 31.636 8.696 29.932 9.368 28.396C10.04 26.86 10.94 25.528 12.068 24.4C13.22 23.248 14.6 22.36 16.208 21.736C17.816 21.112 19.208 20.8 20.384 20.8H29.924L30.68 21.34V27.784ZM9.656 33.508C9.656 35.284 10.052 36.964 10.844 38.548C11.228 39.22 11.672 39.892 12.176 40.564C12.704 41.236 13.34 41.872 14.084 42.472C14.852 43.048 15.764 43.552 16.82 43.984C17.9 44.416 19.148 44.668 20.564 44.74H29.384V40.276H20.78C19.244 40.132 18.032 39.724 17.144 39.052C16.256 38.38 15.548 37.54 15.02 36.532C14.588 35.596 14.372 34.588 14.372 33.508C14.372 32.284 14.588 31.204 15.02 30.268C15.548 29.26 16.256 28.42 17.144 27.748C18.032 27.076 19.244 26.668 20.78 26.524H29.384V22.06H20.564C19.148 22.132 17.9 22.384 16.82 22.816C15.764 23.248 14.852 23.764 14.084 24.364C13.34 24.94 12.704 25.564 12.176 26.236C11.672 26.908 11.228 27.58 10.844 28.252C10.052 29.836 9.656 31.588 9.656 33.508ZM31.3873 21.664L32.1793 20.8H40.4953L41.2873 21.664V26.956L40.4953 27.82H32.1793L31.3873 26.956V21.664ZM32.6473 26.56H40.0273V22.06H32.6473V26.56ZM58.7473 27.82H50.6833C50.2753 27.82 50.0713 28.012 50.0713 28.396V45.136L49.2433 46H43.5913L42.7993 45.136V27.46C42.7993 26.596 43.0273 25.768 43.4833 24.976C43.9393 24.16 44.4913 23.452 45.1393 22.852C45.8113 22.228 46.4953 21.736 47.1913 21.376C47.9113 20.992 48.5833 20.8 49.2073 20.8H58.7473V27.82ZM49.9273 22.06C48.9193 22.06 48.0673 22.276 47.3713 22.708C46.6753 23.14 46.0393 23.692 45.4633 24.364C44.8873 25.012 44.5033 25.636 44.3113 26.236C44.1433 26.812 44.0593 27.364 44.0593 27.892V44.74H48.7753V28.288C48.7753 28.12 48.8233 27.94 48.9193 27.748C49.0153 27.532 49.1353 27.34 49.2793 27.172C49.4233 27.004 49.5793 26.86 49.7473 26.74C49.9393 26.62 50.1433 26.56 50.3593 26.56H57.4873V22.06H49.9273Z" fill="white"/>
</g>
<path d="M35 64L11.5 42H11.6602L11.8125 42.168L12.1953 42.5742L12.6562 42.9688L13.0508 43.3047L14.2142 44.1037L17.0079 45.6757L19.9862 45.9922L29.9457 45.9987L30.6843 45.4427V39.0175H20.9948L20.0259 38.9778L19.1523 38.7951L18.5566 38.5569L17.7862 38.0406L17.1429 37.437L16.5393 36.6587L16.0469 35.7215L15.7451 34.8002L15.6577 33.9186V33.0212L15.7451 32.2746L15.8324 31.7028L16.1025 30.9959L16.4599 30.3208L17.0079 29.5504L17.7068 28.8674L18.3183 28.4385L18.6996 28.2082L19.2317 27.9938L19.9862 27.827L20.5104 27.7714H30.6843V21.3462L31.3753 22.0568V26.9216L32.1457 27.8091H40.5154L41.3039 26.9356V21.6792L40.5231 20.8134L43.9814 24.179L43.6942 24.5893L43.4002 25.0834L43.1751 25.59L43 26.0778L42.7921 27.0347V45.1394L43.5602 45.9922H49.2536L50.0782 45.1394V28.545V28.3586L50.1121 28.1553L50.2081 27.9858L50.2929 27.9124L50.4171 27.8672L50.5075 27.839L50.8125 27.8107H58.7425L65.8767 34.6091L65.5065 37.8489L64.7659 41.135L63.794 43.6342L62.4055 46.6426L61.1133 49.0078L60.4961 49.9375L60.0039 50.6602L59.7539 50.9922L58.9805 51.9961L58.0117 53.1484L57.0117 54.2344L56 55.2461L55.0156 56.1289L53.9766 57.0039L53.0078 57.7422L52.6641 58L52.0078 58.4531L51.1758 59.0039L51.0117 59.1094L50.5273 59.4062L50 59.7148L49.4922 60L49.0039 60.2773L48.5039 60.5391L48.0117 60.7695L47.5469 60.9961L46.9844 61.2539L46.1992 61.5977L45.4609 61.8828L44.5469 62.2109L43.6367 62.5156L42.5039 62.8555L41.3086 63.1641L39.4375 63.543L38.3819 63.6957L37.4119 63.817L36.3868 63.9162L35 64Z" fill="black" fill-opacity="0.08"/>
<path d="M58.7488 27.8108V20.786L65.8672 29.0469L65.9375 29.9883L65.9766 30.8398L65.9961 31.4023V32.207L65.9766 33.0039L65.9453 34.0039L65.8906 34.625L58.7488 27.8108Z" fill="black" fill-opacity="0.08"/>
<path d="M29.457 26.6875V21.9336L20.5781 21.4883L20.7852 26.5938L29.457 26.6875Z" fill="white"/>
<path d="M29.7086 39.717L29.9421 45.2237H19.5904H19.4931H19.3763C18.2932 44.9383 16.1035 44.3597 16.0101 44.3286C15.9167 44.2975 13.4286 42.2012 12.1963 41.1569L10.4645 39.503L9.31652 36.2146L8.96626 33.1791L9.53054 30.0269L9.93916 28.9178L11.2039 26.8553L12.1574 25.6294L13.5778 23.8587L15.796 22.7107L20.8357 21.66V26.8553L16.0685 29.5989L14.7064 33.004L16.6911 38.1993L20.8551 39.9311L29.7086 39.717Z" fill="white"/>
<path d="M40.0682 21.3698H32.4434L32.1743 26.8417L40.0682 27.1556V21.3698Z" fill="white"/>
<path d="M57.9638 27.1556V21.3698H49.3524L45.5849 22.8947L43.6114 26.3931V45.0961L47.7826 45.6792L49.3524 44.6924V29.7121V28.2769L49.8457 27.5593L51.6846 27.1556H57.9638Z" fill="white"/>
<defs>
<filter id="filter0_d_13:18" x="0.360001" y="14.8" width="66.3873" height="41.2" filterUnits="userSpaceOnUse" color-interpolation-filters="sRGB">
<feFlood flood-opacity="0" result="BackgroundImageFix"/>
<feColorMatrix in="SourceAlpha" type="matrix" values="0 0 0 0 0 0 0 0 0 0 0 0 0 0 0 0 0 0 127 0" result="hardAlpha"/>
<feOffset dy="2"/>
<feGaussianBlur stdDeviation="4"/>
<feComposite in2="hardAlpha" operator="out"/>
<feColorMatrix type="matrix" values="0 0 0 0 0 0 0 0 0 0 0 0 0 0 0 0 0 0 0.25 0"/>
<feBlend mode="normal" in2="BackgroundImageFix" result="effect1_dropShadow_13:18"/>
<feBlend mode="normal" in="SourceGraphic" in2="effect1_dropShadow_13:18" result="shape"/>
</filter>
<linearGradient id="paint0_linear_13:18" x1="34" y1="-119.5" x2="34" y2="64" gradientUnits="userSpaceOnUse">
<stop stop-color="white"/>
<stop offset="1" stop-color="#00BDFF"/>
</linearGradient>
</defs>
</svg>
