<svg xmlns="http://www.w3.org/2000/svg" width="90.5" height="90.5" viewBox="0 0 90.5 90.5">
  <metadata><?xpacket begin="﻿" id="W5M0MpCehiHzreSzNTczkc9d"?>
<x:xmpmeta xmlns:x="adobe:ns:meta/" x:xmptk="Adobe XMP Core 5.6-c142 79.160924, 2017/07/13-01:06:39        ">
   <rdf:RDF xmlns:rdf="http://www.w3.org/1999/02/22-rdf-syntax-ns#">
      <rdf:Description rdf:about=""/>
   </rdf:RDF>
</x:xmpmeta>
                                                                                                    
                                                                                                    
                                                                                                    
                                                                                                    
                                                                                                    
                                                                                                    
                                                                                                    
                                                                                                    
                                                                                                    
                                                                                                    
                                                                                                    
                                                                                                    
                                                                                                    
                                                                                                    
                                                                                                    
                                                                                                    
                                                                                                    
                                                                                                    
                                                                                                    
                                                                                                    
                           
<?xpacket end="w"?></metadata>
<defs>
    <style>
      .cls-1 {
        fill: #fff;
        fill-rule: evenodd;
      }
    </style>
  </defs>
  <path id="_Prev_prev_prev_prev_copy" data-name="* Prev * prev * prev * prev copy" class="cls-1" d="M3880.42,920.953l-0.9-1.355-1.02,1.228,0.1-1.464-1.74.5,0.88,1.195-1.52-.511-0.06,1.627,1.5-.388-1.03,1.284,1.62,0.535,0.16-1.638,1,1.3,1.1-1.312-1.56-.542Zm14.75-2.759-4.97-.433-0.61,7.075,2.55,0.222,0.18-2.062,2.46,0.214c1.88,0.164,3.18-.737,3.31-2.321C3898.23,919.364,3897.14,918.366,3895.17,918.194Zm-0.96,3.33-1.75-.152,0.15-1.764,1.77,0.154a0.9,0.9,0,0,1,1.02.972A0.92,0.92,0,0,1,3894.21,921.524Zm10.99,6.65,2.63,1.019-0.66-3.064a2.225,2.225,0,0,0,2.16-1.47c0.41-1.073.18-2.43-2.11-3.315l-4.63-1.8-2.57,6.621,2.39,0.925,0.84-2.163,1.39,0.538Zm-0.81-6.182,1.69,0.655c0.74,0.289.85,0.719,0.7,1.12-0.16.419-.53,0.683-1.3,0.387l-1.68-.651Zm8.66,8.69,0.64-.854,3.75,2.821,0.95-1.261-3.75-2.82,0.61-.806,3.88,2.923,1.03-1.373-5.92-4.462-4.27,5.664,5.98,4.5,1.03-1.373Zm6.5,8.419,1.85,2.486,7.73-1.513-1.7-2.278-4.61,1.118a3.564,3.564,0,0,0-.75.27l-0.03-.032a3.527,3.527,0,0,0,.48-0.639l2.39-4.1-1.7-2.278Zm12.33,13.69,1.34-.914-1.24-1.007,1.47,0.084-0.52-1.734-1.19.887,0.5-1.525-1.63-.035,0.41,1.5-1.3-1.021-0.52,1.626,1.64,0.146-1.29,1.013,1.33,1.085,0.52-1.565Zm3.01,14.638,0.35-4.97-7.09-.49-0.17,2.555,2.06,0.143-0.17,2.464c-0.13,1.886.79,3.164,2.38,3.274C3933.78,970.51,3934.76,969.405,3934.89,967.429Zm-3.34-.894,0.12-1.756,1.76,0.122-0.12,1.767a0.894,0.894,0,0,1-.95,1.037A0.915,0.915,0,0,1,3931.55,966.535Zm-6.46,11.113-0.97,2.648,3.06-.714a2.212,2.212,0,0,0,1.51,2.129c1.07,0.4,2.43.135,3.27-2.165l1.71-4.666-6.67-2.442-0.88,2.4,2.18,0.8-0.51,1.4Zm6.17-.925-0.62,1.7c-0.28.751-.71,0.871-1.11,0.724-0.42-.155-0.69-0.521-0.41-1.291l0.62-1.69Zm-8.55,8.82,0.87,0.628-2.76,3.791,1.28,0.928,2.76-3.79,0.81,0.593-2.85,3.928,1.39,1.011,4.36-6-5.74-4.171-4.4,6.054,1.39,1.01Zm-8.3,6.638-2.45,1.9,1.65,7.7,2.25-1.74-1.2-4.6a4.053,4.053,0,0,0-.28-0.742l0.03-.025a3.633,3.633,0,0,0,.64.461l4.15,2.322,2.25-1.737Zm-13.47,12.569,0.94,1.33,0.98-1.26-0.05,1.47,1.72-.55-0.91-1.17,1.54,0.47,0.01-1.63-1.49.43,1-1.32-1.64-.49-0.12,1.65-1.03-1.28-1.07,1.35,1.58,0.49Zm-14.57,3.26,4.97,0.26,0.37-7.09-2.56-.13-0.11,2.06-2.46-.12c-1.89-.1-3.15.84-3.23,2.43C3883.27,1006.95,3884.39,1007.91,3886.37,1008.01Zm0.83-3.36,1.76,0.09-0.09,1.77-1.77-.1a0.887,0.887,0,0,1-1.05-.93A0.909,0.909,0,0,1,3887.2,1004.65Zm-11.23-6.259-2.67-.926,0.77,3.035a2.231,2.231,0,0,0-2.11,1.55c-0.37,1.08-.09,2.43,2.22,3.24l4.69,1.63,2.34-6.71-2.42-.837-0.76,2.187-1.41-.49Zm1.02,6.149-1.71-.6c-0.75-.26-0.88-0.68-0.74-1.09,0.15-.43.51-0.7,1.28-0.43l1.7,0.59Zm-8.97-8.39-0.61.876-3.84-2.69-0.91,1.294,3.84,2.69-0.57.827-3.98-2.788-0.99,1.408,6.07,4.253,4.08-5.81-6.14-4.3-0.98,1.408Zm-6.76-8.177-1.94-2.419-7.67,1.781,1.78,2.216,4.57-1.278a3.805,3.805,0,0,0,.74-0.3l0.02,0.032a4.184,4.184,0,0,0-.45.654l-2.25,4.181,1.78,2.216Zm-12.8-13.249-1.31.958,1.27,0.964-1.47-.034,0.58,1.716,1.15-.927-0.44,1.541,1.63-.02-0.46-1.482,1.33,0.977,0.46-1.642-1.64-.091,1.26-1.056-1.36-1.04-0.47,1.582Zm-3.53-14.553-0.17,4.98,7.1,0.251,0.09-2.56-2.07-.073,0.09-2.47c0.06-1.89-.9-3.135-2.49-3.191C3845.95,957.053,3845,958.192,3844.93,960.171Zm3.38,0.781-0.06,1.76-1.77-.063,0.06-1.77a0.9,0.9,0,0,1,.92-1.069A0.914,0.914,0,0,1,3848.31,960.952Zm6.07-11.318,0.88-2.678-3.03.814a2.226,2.226,0,0,0-1.58-2.078c-1.09-.359-2.43-0.054-3.2,2.272l-1.55,4.719,6.74,2.22,0.8-2.43-2.2-.726,0.46-1.415Zm-6.13,1.128,0.56-1.718c0.25-.76.68-0.894,1.09-0.76a0.856,0.856,0,0,1,.45,1.276l-0.56,1.709Zm8.23-9.108-0.88-.6,2.62-3.882-1.31-.885-2.62,3.882-0.84-.565,2.72-4.024-1.42-.963-4.16,6.142,5.88,3.977,4.2-6.2-1.43-.963Zm8.07-6.925,2.39-1.977-1.9-7.639-2.19,1.811,1.35,4.554a3.92,3.92,0,0,0,.31.732l-0.03.026a3.673,3.673,0,0,0-.66-0.439l-4.23-2.182-2.18,1.811Z" transform="translate(-3844.75 -917.75)"/>
</svg>
