<svg xmlns="http://www.w3.org/2000/svg" width="90.68" height="90.719" viewBox="0 0 90.68 90.719">
  <metadata><?xpacket begin="﻿" id="W5M0MpCehiHzreSzNTczkc9d"?>
<x:xmpmeta xmlns:x="adobe:ns:meta/" x:xmptk="Adobe XMP Core 5.6-c142 79.160924, 2017/07/13-01:06:39        ">
   <rdf:RDF xmlns:rdf="http://www.w3.org/1999/02/22-rdf-syntax-ns#">
      <rdf:Description rdf:about=""/>
   </rdf:RDF>
</x:xmpmeta>
                                                                                                    
                                                                                                    
                                                                                                    
                                                                                                    
                                                                                                    
                                                                                                    
                                                                                                    
                                                                                                    
                                                                                                    
                                                                                                    
                                                                                                    
                                                                                                    
                                                                                                    
                                                                                                    
                                                                                                    
                                                                                                    
                                                                                                    
                                                                                                    
                                                                                                    
                                                                                                    
                           
<?xpacket end="w"?></metadata>
<defs>
    <style>
      .cls-1 {
        fill: #fff;
        fill-rule: evenodd;
      }
    </style>
  </defs>
  <path id="sCROLL_DOWN_SCROLL_DOWN_D" data-name="sCROLL DOWN * SCROLL DOWN * D" class="cls-1" d="M1052.46,703.5c2.59-.647,3.91-1.937,3.51-3.537-0.33-1.319-1.27-1.692-3.3-1.4l-1.82.269c-0.71.1-.94,0.039-1.01-0.233-0.08-.32.32-0.593,1.14-0.8a4.532,4.532,0,0,1,2.98.163l1-1.8a7.208,7.208,0,0,0-4.26-.058c-2.44.611-3.63,1.8-3.28,3.21,0.34,1.338,1.35,1.765,3.15,1.542l2.12-.272c0.6-.077.8-0.024,0.86,0.238,0.09,0.368-.34.684-1.37,0.941a4.674,4.674,0,0,1-3.22-.391l-1.25,1.8A6.947,6.947,0,0,0,1052.46,703.5Zm9.64-1.232c2.36,0,4.07-.942,4.65-2.582l-2.62-.586a1.765,1.765,0,0,1-1.95,1.257,1.828,1.828,0,0,1-2.08-1.895,1.848,1.848,0,0,1,2.09-1.9,1.754,1.754,0,0,1,1.93,1.275l2.65-.5c-0.48-1.652-2.23-2.676-4.58-2.681-2.81-.006-4.79,1.581-4.8,3.832C1057.39,700.8,1059.23,702.26,1062.1,702.266Zm11.4,1.513,2.72,0.742-0.97-2.979a2.218,2.218,0,0,0,1.99-1.685c0.3-1.11-.07-2.434-2.43-3.078l-4.8-1.307-1.86,6.849,2.47,0.673,0.61-2.238,1.43,0.391Zm-1.45-6.061,1.75,0.475c0.77,0.211.93,0.626,0.81,1.041-0.11.434-.45,0.735-1.25,0.519l-1.73-.473Zm8.94,9.7c2.54,1.479,4.89,1.152,6.07-.859s0.3-4.221-2.24-5.7-4.9-1.157-6.07.854S1078.45,705.932,1080.99,707.417Zm0.94-1.606a1.95,1.95,0,1,1,2.8-.612A1.908,1.908,0,0,1,1081.93,705.811Zm4.34,4.816,5.04,4.924,1.37-1.4-3.2-3.133,3.59-3.675-1.83-1.791Zm5.9,6.088,3.81,5.919,1.65-1.061-2.42-3.766,4.32-2.782-1.39-2.152Zm5.68,10.108,1.14,4.569c0.62,2.513,2.49,3.83,4.6,3.307s2.94-2.379,2.3-4.96l-1.15-4.627Zm2.23,2.083,3.68-.913,0.43,1.736a1.775,1.775,0,0,1-1.3,2.362,1.851,1.851,0,0,1-2.39-1.507Zm-0.38,12.635c-0.12,2.939,1.28,4.868,3.61,4.961s3.87-1.716,3.99-4.655-1.28-4.878-3.61-4.971S1099.82,738.592,1099.7,741.541Zm1.86,0.075a1.953,1.953,0,1,1,1.86,2.187A1.919,1.919,0,0,1,1101.56,741.616Zm-2.4,7.442-1,2.692,3.27,2.684a3.364,3.364,0,0,0,.58.374l-0.02.047a2.329,2.329,0,0,0-.68-0.092l-4.23-.1-0.99,2.692,5.82,4.737,0.89-2.411-3.35-2.456a3.075,3.075,0,0,0-.66-0.395l0.02-.047a2.912,2.912,0,0,0,.78.067l4.22,0.091,0.94-2.533-3.26-2.681a3.106,3.106,0,0,0-.64-0.461l0.01-.046a3.132,3.132,0,0,0,.77.132l4.14,0.316,0.89-2.411Zm-4.98,11.583-1.46,1.8,2.42,1.963,0.85,0.686-0.03.039a4.938,4.938,0,0,0-1.08-.093l-4.49.279-1.57,1.942,5.51,4.467,1.46-1.794-2.4-1.944-0.86-.692,0.03-.039a5.114,5.114,0,0,0,1.06.087l4.41-.177,1.66-2.059Zm-10.74,16.811,1.26,1.038,0.62-1.471,0.32,1.43,1.53-.979-1.18-.893,1.6,0.051-0.42-1.574-1.33.805,0.62-1.529-1.7-.044,0.32,1.616-1.34-.961-0.67,1.576,1.65,0.068Zm-11.27-1.074c-2.57.734-3.85,2.067-3.4,3.653,0.38,1.307,1.33,1.649,3.35,1.287l1.81-.33c0.71-.119.94-0.071,1.01,0.2,0.1,0.317-.29.6-1.11,0.837a4.514,4.514,0,0,1-2.98-.062l-0.94,1.829a7.2,7.2,0,0,0,4.26-.085c2.42-.692,3.56-1.924,3.17-3.318-0.38-1.326-1.41-1.719-3.2-1.435l-2.11.342c-0.59.1-.79,0.051-0.87-0.208-0.1-.365.32-0.695,1.34-0.986a4.662,4.662,0,0,1,3.23.282l1.19-1.838A6.927,6.927,0,0,0,1072.17,776.378Zm-9.62,1.407c-2.36.039-4.05,1.018-4.6,2.668l2.63,0.536a1.755,1.755,0,0,1,1.92-1.293,1.905,1.905,0,1,1,.07,3.791,1.745,1.745,0,0,1-1.95-1.238l-2.65.545c0.51,1.642,2.29,2.633,4.63,2.593,2.81-.047,4.76-1.671,4.72-3.921C1067.29,779.166,1065.42,777.736,1062.55,777.785Zm-11.42-1.294-2.74-.688,1.03,2.962a2.227,2.227,0,0,0-1.96,1.726c-0.28,1.116.12,2.434,2.5,3.032l4.82,1.212,1.73-6.891-2.48-.624-0.57,2.252-1.44-.364Zm1.56,6.038-1.75-.442c-0.78-.195-0.94-0.608-0.84-1.025a0.856,0.856,0,0,1,1.24-.545l1.75,0.439Zm-9.15-9.556c-2.57-1.435-4.92-1.064-6.06.971s-0.22,4.231,2.35,5.665,4.93,1.069,6.06-.966S1046.12,774.412,1043.54,772.973Zm-0.91,1.624a1.953,1.953,0,1,1-2.79.665A1.918,1.918,0,0,1,1042.63,774.6Zm-4.4-4.719-5.12-4.833-1.34,1.426,3.26,3.076-3.53,3.738,1.86,1.758Zm-6.02-5.987-3.92-5.844-1.63,1.092,2.5,3.719-4.27,2.865,1.43,2.125Zm-5.93-9.98-1.14-4.567c-0.63-2.512-2.5-3.826-4.6-3.3-2.13.531-2.94,2.384-2.3,4.963l1.16,4.626Zm-2.23-2.08-3.67.919-0.44-1.736a1.777,1.777,0,0,1,1.3-2.363,1.848,1.848,0,0,1,2.39,1.5Zm0.17-12.617c0.07-2.938-1.36-4.838-3.69-4.888s-3.84,1.788-3.9,4.726,1.37,4.848,3.69,4.9S1024.16,742.162,1024.22,739.214Zm-1.85-.04a1.952,1.952,0,1,1-1.9-2.15A1.92,1.92,0,0,1,1022.37,739.174Zm2.26-7.478,0.94-2.711-3.32-2.622a3.276,3.276,0,0,0-.58-0.363l0.01-.047a2.362,2.362,0,0,0,.69.079l4.23,0.025,0.94-2.711-5.9-4.627-0.85,2.427,3.39,2.393a3.031,3.031,0,0,0,.67.383l-0.01.047a3.047,3.047,0,0,0-.79-0.052l-4.23-.012-0.89,2.55,3.32,2.619a2.773,2.773,0,0,0,.65.449l-0.02.048a3.031,3.031,0,0,0-.76-0.119l-4.15-.239-0.85,2.428Zm4.76-11.675,1.42-1.83-2.46-1.918-0.86-.671,0.03-.039a4.957,4.957,0,0,0,1.09.072l4.48-.362,1.54-1.972-5.6-4.366-1.42,1.822,2.43,1.9,0.87,0.677-0.03.039a5.087,5.087,0,0,0-1.06-.068l-4.4.26-1.63,2.09Zm10.4-17-1.27-1.013-0.6,1.482-0.35-1.424-1.5,1.009,1.2,0.869-1.61-.019,0.45,1.565,1.31-.831-0.59,1.541,1.71,0.011-0.35-1.61,1.35,0.936,0.64-1.588-1.65-.036Z" transform="translate(-1016.63 -694.656)"/>
</svg>
