<svg xmlns="http://www.w3.org/2000/svg" width="90.47" height="90.437" viewBox="0 0 90.47 90.437">
  <metadata><?xpacket begin="﻿" id="W5M0MpCehiHzreSzNTczkc9d"?>
<x:xmpmeta xmlns:x="adobe:ns:meta/" x:xmptk="Adobe XMP Core 5.6-c142 79.160924, 2017/07/13-01:06:39        ">
   <rdf:RDF xmlns:rdf="http://www.w3.org/1999/02/22-rdf-syntax-ns#">
      <rdf:Description rdf:about=""/>
   </rdf:RDF>
</x:xmpmeta>
                                                                                                    
                                                                                                    
                                                                                                    
                                                                                                    
                                                                                                    
                                                                                                    
                                                                                                    
                                                                                                    
                                                                                                    
                                                                                                    
                                                                                                    
                                                                                                    
                                                                                                    
                                                                                                    
                                                                                                    
                                                                                                    
                                                                                                    
                                                                                                    
                                                                                                    
                                                                                                    
                           
<?xpacket end="w"?></metadata>
<defs>
    <style>
      .cls-1 {
        fill: #fff;
        fill-rule: evenodd;
      }
    </style>
  </defs>
  <path id="_PLEASE_WAIT_Please_wait_copy_2" data-name=" PLEASE WAIT * Please wait * copy 2" class="cls-1" d="M3976.2,847.581l-4.88,1,1.43,6.953,2.5-.514-0.41-2.027,2.42-.5c1.85-.379,2.83-1.611,2.51-3.168C3979.46,847.83,3978.14,847.184,3976.2,847.581Zm0.04,3.462-1.73.354-0.35-1.733,1.73-.356a0.893,0.893,0,0,1,1.25.641A0.91,0.91,0,0,1,3976.24,851.043Zm6.59,2.852,7.04,0.385,0.1-1.958-4.47-.245,0.28-5.133-2.56-.14Zm12.21-.034,0.32-1.019,4.47,1.433,0.48-1.5-4.46-1.433,0.31-.962,4.62,1.485,0.53-1.638-7.07-2.267-2.17,6.761,7.14,2.289,0.52-1.638Zm11.88,7.794,2.28,1.519,1.19-7.73-2.76-1.841-6.68,4.07,2.29,1.525,1.2-.817,2.77,1.847Zm-1.11-4.21,1.1-.745a7.56,7.56,0,0,0,1.29-.977l0.03,0.016a6.555,6.555,0,0,0-.41,1.566l-0.27,1.3Zm6.99,10.195c1.73,2.039,3.47,2.661,4.73,1.6,1.04-.878.96-1.885-0.2-3.586l-1.04-1.514c-0.4-.594-0.45-0.825-0.24-1.006,0.25-.213.67,0.021,1.22,0.67a4.479,4.479,0,0,1,1.17,2.745l2.05,0.109a7.2,7.2,0,0,0-1.82-3.851c-1.63-1.924-3.22-2.463-4.33-1.527-1.05.891-.99,1.989,0,3.506l1.18,1.78c0.33,0.5.37,0.706,0.17,0.88-0.29.245-.77-0.007-1.45-0.817a4.631,4.631,0,0,1-1.07-3.063l-2.17-.331A7.058,7.058,0,0,0,4012.8,867.64Zm6.71,6.594,0.97-.452,1.98,4.247,1.43-.668-1.98-4.247,0.92-.427,2.05,4.4,1.56-.727-3.14-6.72-6.43,3,3.17,6.783,1.56-.727Zm2.52,13.783-0.03,2.868,3.98,1.421a3.29,3.29,0,0,0,.67.156v0.05a2.345,2.345,0,0,0-.67.144l-4.01,1.328-0.03,2.869,7.07,2.491,0.02-2.569-3.97-1.18a3,3,0,0,0-.76-0.148V895.4a2.909,2.909,0,0,0,.76-0.2l4-1.338,0.03-2.7-3.97-1.42a2.988,2.988,0,0,0-.76-0.218v-0.05a2.96,2.96,0,0,0,.76-0.132l4-1.1,0.03-2.569Zm-2.79,18.339-0.89,2.592,7.78-.828,1.08-3.14-5.65-5.416-0.89,2.6,1.1,0.957-1.08,3.15Zm3.78-2.15,1.01,0.87a7.886,7.886,0,0,0,1.27,1l-0.01.028a6.709,6.709,0,0,0-1.62.007l-1.32.076Zm-7.22,8.625,6.07,3.679,1.32-2.187-6.06-3.68Zm-1.18,12.537,5.39-5.93-1.44-1.311-1.84,2.019-3.81-3.463-1.71,1.886,3.81,3.462-1.85,2.026Zm-10.9,5.023,1.2,1.1,0.69-1.441,0.26,1.445,1.57-.909-1.14-.947,1.6,0.125-0.35-1.592-1.36.743,0.69-1.5-1.7-.123,0.24,1.63-1.29-1.023-0.75,1.544,1.65,0.144Zm-12.69,6.193,4.9-.917-1.31-6.974-2.52.472,0.38,2.033-2.42.455c-1.86.348-2.86,1.563-2.57,3.124C3987.77,936.28,3989.09,936.949,3991.03,936.584Zm0.03-3.461,1.72-.324,0.33,1.738-1.74.326a0.9,0.9,0,0,1-1.24-.661A0.915,0.915,0,0,1,3991.06,933.123Zm-6.53-2.952-7.02-.5-0.14,1.954,4.47,0.318-0.37,5.123,2.56,0.182Zm-12.22-.152-0.34,1.014-4.45-1.5-0.5,1.5,4.44,1.5-0.32.957-4.61-1.552-0.55,1.631,7.04,2.37,2.26-6.732-7.1-2.392-0.55,1.631Zm-11.77-7.986-2.25-1.555-1.32,7.72,2.74,1.884,6.75-3.973-2.27-1.561-1.22.8-2.74-1.891Zm1.05,4.231-1.11.729a8.114,8.114,0,0,0-1.31.959l-0.02-.017a6.866,6.866,0,0,0,.43-1.561l0.29-1.3Zm-6.83-10.317c-1.69-2.069-3.42-2.721-4.7-1.677-1.06.86-.99,1.869,0.14,3.591l1.02,1.532c0.39,0.6.43,0.834,0.22,1.011-0.26.208-.68-0.033-1.21-0.692a4.522,4.522,0,0,1-1.12-2.766l-2.06-.144a7.232,7.232,0,0,0,1.76,3.884c1.6,1.953,3.18,2.519,4.31,1.6,1.07-.873,1.02-1.972.05-3.507l-1.15-1.8c-0.32-.51-0.36-0.712-0.15-0.883,0.3-.241.77,0.02,1.44,0.842a4.691,4.691,0,0,1,1.02,3.083l2.16,0.368A6.935,6.935,0,0,0,3954.76,915.947Zm-6.6-6.687-0.97.438-1.92-4.28-1.44.646,1.91,4.28-0.92.413-1.99-4.435-1.56.7,3.03,6.771,6.48-2.9-3.06-6.834-1.57.7Zm-2.3-13.839,0.07-2.867-3.96-1.483a3.089,3.089,0,0,0-.66-0.167v-0.05a2.311,2.311,0,0,0,.67-0.133l4.04-1.264,0.07-2.867-7.03-2.6-0.07,2.567,3.96,1.243a3.037,3.037,0,0,0,.76.16l-0.01.05a2.882,2.882,0,0,0-.76.19l-4.02,1.274-0.07,2.7,3.95,1.483a2.83,2.83,0,0,0,.75.229v0.05a2.974,2.974,0,0,0-.76.12l-4.02,1.035-0.07,2.568Zm3.07-18.285,0.93-2.58-7.8.715-1.12,3.127,5.58,5.5,0.92-2.59-1.08-.973,1.12-3.136Zm-3.81,2.1-0.99-.885a7.618,7.618,0,0,0-1.27-1.014l0.01-.029a6.66,6.66,0,0,0,1.62.017l1.33-.057Zm7.36-8.51-6.01-3.772-1.36,2.168,6.01,3.773Zm1.39-12.521-5.49,5.842,1.42,1.335,1.87-1.988,3.75,3.526,1.75-1.858-3.75-3.526,1.87-2Zm10.96-4.832-1.19-1.113-0.71,1.429-0.24-1.448-1.58.884,1.13,0.963-1.6-.149,0.32,1.6,1.37-.722-0.71,1.488,1.7,0.149-0.22-1.632,1.27,1.042,0.77-1.531-1.64-.17Z" transform="translate(-3938.69 -846.813)"/>
</svg>
