<svg xmlns="http://www.w3.org/2000/svg" width="90.5" height="90.125" viewBox="0 0 90.5 90.125">
  <metadata><?xpacket begin="﻿" id="W5M0MpCehiHzreSzNTczkc9d"?>
<x:xmpmeta xmlns:x="adobe:ns:meta/" x:xmptk="Adobe XMP Core 5.6-c142 79.160924, 2017/07/13-01:06:39        ">
   <rdf:RDF xmlns:rdf="http://www.w3.org/1999/02/22-rdf-syntax-ns#">
      <rdf:Description rdf:about=""/>
   </rdf:RDF>
</x:xmpmeta>
                                                                                                    
                                                                                                    
                                                                                                    
                                                                                                    
                                                                                                    
                                                                                                    
                                                                                                    
                                                                                                    
                                                                                                    
                                                                                                    
                                                                                                    
                                                                                                    
                                                                                                    
                                                                                                    
                                                                                                    
                                                                                                    
                                                                                                    
                                                                                                    
                                                                                                    
                                                                                                    
                           
<?xpacket end="w"?></metadata>
<defs>
    <style>
      .cls-1 {
        fill: #fff;
        fill-rule: evenodd;
      }
    </style>
  </defs>
  <path id="Click_to_zoom_click_to_zoom_" data-name="Click to zoom * click to zoom *" class="cls-1" d="M1140.85,609.656c2.27-.649,3.65-2.032,3.75-3.765l-2.68.163a1.743,1.743,0,0,1-1.51,1.744,1.835,1.835,0,0,1-2.53-1.242,1.854,1.854,0,0,1,1.48-2.4,1.756,1.756,0,0,1,2.21.69l2.41-1.209c-0.92-1.454-2.89-1.951-5.14-1.307-2.7.772-4.16,2.844-3.55,5.007C1135.93,609.547,1138.1,610.444,1140.85,609.656Zm5.49-1.491,7.04-.262-0.07-1.959-4.48.167-0.19-5.138-2.56.1Zm10.67,0.313,0.9-7.047-2.55-.322-0.89,7.047Zm5.44,1.586c2.25,0.721,4.17.339,5.21-1.048l-2.31-1.353a1.762,1.762,0,0,1-2.24.607,1.9,1.9,0,1,1,1.16-3.61,1.745,1.745,0,0,1,1.45,1.8l2.68,0.333c0.05-1.718-1.32-3.227-3.55-3.942-2.67-.859-5.04.05-5.73,2.193C1158.42,607.234,1159.72,609.187,1162.45,610.064Zm10.39,4.834,2.47,1.562-0.37-5.345,0.22-.006,3.86-.7-2.58-1.638-4.11.771,1.52-2.408-2.16-1.37-3.8,6,2.17,1.37,0.94-1.5,1.59-.312Zm14.82,4.562-5.27-6.05-1.47,1.281,1.79,2.059-3.88,3.384,1.67,1.924,3.89-3.384,1.8,2.067Zm-3.18,9.175c1.35,2.61,3.52,3.6,5.59,2.526s2.51-3.4,1.16-6.015-3.51-3.606-5.58-2.536S1183.13,626.015,1184.48,628.635Zm1.66-.854a1.949,1.949,0,1,1,2.69.983A1.913,1.913,0,0,1,1186.14,627.781Zm3.61,9.346-1.57.2,1.02,7.98,1.67-.214-0.59-4.639,4.36,4,1.58-.2-0.99-7.7-1.67.214,0.56,4.381Zm-1.26,13.179c-0.33,2.922.92,4.947,3.24,5.21s3.99-1.43,4.32-4.352-0.92-4.956-3.23-5.219S1188.83,647.374,1188.49,650.306Zm1.85,0.21a1.954,1.954,0,1,1,1.69,2.316A1.922,1.922,0,0,1,1190.34,650.516Zm-4.4,9.734c-1.11,2.721-.45,5.007,1.71,5.887s4.22-.3,5.33-3.018,0.46-5.017-1.7-5.9S1187.06,657.519,1185.94,660.25Zm1.73,0.7a1.95,1.95,0,1,1,1,2.686A1.909,1.909,0,0,1,1187.67,660.952Zm-3.78,4.793-1.39,1.727,3.04,2.446a7.8,7.8,0,0,0,1.23.863l-0.03.031c-0.32-.143-0.84-0.357-1.39-0.547l-4-1.362-1.49,1.851,2.13,3.7c0.26,0.448.64,1.054,0.8,1.257l-0.03.039a9.336,9.336,0,0,0-1.08-1.05l-3.04-2.446-1.46,1.82,5.52,4.454,2.44-3.026-2.03-3.2a4.3,4.3,0,0,0-.54-0.773l0.01-.015a4.358,4.358,0,0,0,.86.356l3.6,1.276,2.38-2.948Zm-11.79,17.9,1.24,1.05,0.63-1.466,0.32,1.435,1.53-.965-1.17-.9,1.6,0.067-0.41-1.578-1.33.792,0.64-1.523-1.71-.061,0.3,1.62-1.32-.975-0.69,1.57,1.65,0.084Zm-11.09-1.226c-2.27.649-3.66,2.032-3.75,3.765l2.68-.163a1.734,1.734,0,0,1,1.51-1.744,1.834,1.834,0,0,1,2.53,1.241,1.855,1.855,0,0,1-1.48,2.4,1.756,1.756,0,0,1-2.21-.69l-2.41,1.209c0.92,1.454,2.89,1.95,5.14,1.307,2.7-.773,4.16-2.845,3.55-5.007C1165.93,682.531,1163.76,681.634,1161.01,682.423Zm-5.49,1.477-7.04.252,0.07,1.96,4.48-.16,0.18,5.139,2.56-.091Zm-10.67-.337-0.9,7.04,2.53,0.327,0.91-7.04Zm-5.44-1.6c-2.24-.725-4.16-0.348-5.21,1.037l2.32,1.358a1.744,1.744,0,0,1,2.23-.6,1.9,1.9,0,1,1-1.16,3.605,1.749,1.749,0,0,1-1.45-1.8l-2.67-.339c-0.06,1.717,1.31,3.228,3.53,3.948,2.67,0.864,5.05-.04,5.74-2.18C1143.45,684.8,1142.14,682.848,1139.41,681.965Zm-10.38-4.858-2.46-1.568,0.36,5.347-0.22,0-3.87.692,2.58,1.643,4.12-.761-1.53,2.4,2.16,1.375,3.81-5.99-2.16-1.375-0.95,1.493-1.59.309Zm-14.8-4.608,5.25,6.068,1.47-1.276-1.78-2.066,3.89-3.371-1.67-1.929-3.89,3.371-1.8-2.074Zm3.19-9.155c-1.35-2.612-3.51-3.6-5.58-2.534s-2.52,3.4-1.17,6.012,3.51,3.61,5.58,2.543S1118.77,665.965,1117.42,663.344Zm-1.65.851a1.952,1.952,0,1,1-2.69-.986A1.921,1.921,0,0,1,1115.77,664.2Zm-3.6-9.361,1.58-.2-1-7.986-1.67.209,0.58,4.643-4.35-4.012-1.58.2,0.96,7.709,1.68-.209-0.55-4.385Zm1.3-13.17c0.34-2.92-.9-4.948-3.22-5.218s-3.99,1.415-4.33,4.335,0.9,4.958,3.21,5.229S1113.13,644.594,1113.47,641.664Zm-1.85-.216a1.95,1.95,0,1,1-1.68-2.321A1.915,1.915,0,0,1,1111.62,641.448Zm4.42-9.721c1.11-2.719.46-5.006-1.69-5.89s-4.23.288-5.34,3.006-0.47,5.015,1.68,5.9S1114.92,634.454,1116.04,631.727Zm-1.72-.706a1.952,1.952,0,1,1-1-2.687A1.918,1.918,0,0,1,1114.32,631.021Zm3.79-4.812,1.4-1.725-3.03-2.459a7.766,7.766,0,0,0-1.23-.868l0.03-.031c0.32,0.144.84,0.36,1.39,0.552l4,1.376,1.5-1.85-2.13-3.712a13.444,13.444,0,0,0-.79-1.263l0.03-.038a9.387,9.387,0,0,0,1.08,1.054l3.03,2.46,1.48-1.819-5.52-4.477-2.45,3.023,2.02,3.212a4.333,4.333,0,0,0,.54.776l-0.01.015a4.351,4.351,0,0,0-.86-0.359l-3.6-1.289-2.39,2.945Zm11.82-17.85-1.24-1.052-0.63,1.464-0.31-1.434-1.54.962,1.17,0.906-1.6-.069,0.4,1.578,1.34-.79-0.64,1.522,1.7,0.063-0.29-1.62,1.32,0.976,0.69-1.567-1.65-.087Z" transform="translate(-1105.72 -600.969)"/>
</svg>
